<svg xmlns="http://www.w3.org/2000/svg" viewBox="0 0 64 64" fill="none">
  <!-- Blue circle background -->
  <rect width="64" height="64" rx="12" fill="#4A90D9"/>
  <!-- Water at bottom -->
  <path d="M0 48 Q16 44 32 48 Q48 52 64 48 L64 64 L0 64 Z" fill="#3670A8" opacity="0.5"/>
  <!-- Lighthouse tower -->
  <path d="M26 48 L28 22 L36 22 L38 48 Z" fill="white"/>
  <!-- Red stripes -->
  <path d="M27 38 L37 38 L37.3 35 L26.7 35 Z" fill="#C0392B"/>
  <!-- Gallery deck -->
  <rect x="25" y="20" width="14" height="3" rx="1" fill="#2C3E50"/>
  <!-- Lantern room -->
  <rect x="27" y="13" width="10" height="8" rx="1.5" fill="white" stroke="#2C3E50" stroke-width="1"/>
  <rect x="28" y="14" width="8" height="6" rx="0.5" fill="#FDE68A" opacity="0.5"/>
  <!-- Red dome roof -->
  <path d="M27 13 Q28 9 32 7 Q36 9 37 13 Z" fill="#C0392B"/>
  <!-- Finial -->
  <line x1="32" y1="7" x2="32" y2="4" stroke="#2C3E50" stroke-width="1.5" stroke-linecap="round"/>
  <circle cx="32" cy="3" r="1.5" fill="#C0392B"/>
  <!-- Base -->
  <rect x="23" y="47" width="18" height="3" rx="1" fill="#CFD8E0"/>
</svg>
